<svg width="26" height="26" viewBox="0 0 26 26" fill="none" xmlns="http://www.w3.org/2000/svg">
<path d="M24.8541 13.3047C25.0572 13.3047 25.1994 13.1422 25.2197 12.9594V8.53124C25.2197 8.32811 25.0572 8.18593 24.8541 8.16561H23.8791L23.4525 5.26093C23.4322 5.0578 23.2494 4.93593 23.0463 4.95624L17.5416 5.76874H17.5213L1.43377 8.18593C1.43377 8.18593 1.12908 8.24686 1.12908 8.53124V12.9391C1.12908 13.1422 1.29158 13.2844 1.47439 13.3047C2.36814 13.3047 3.07908 14.0156 3.07908 14.9094C3.07908 15.8031 2.36814 16.5141 1.47439 16.5141C1.27127 16.5141 1.12908 16.6766 1.10877 16.8594V21.2672C1.10877 21.4703 1.27127 21.6125 1.47439 21.6328H24.8338C25.0369 21.6328 25.1791 21.4703 25.1994 21.2672V16.8797C25.1994 16.6766 25.0369 16.5344 24.8541 16.5141C23.9603 16.5141 23.2494 15.8031 23.2494 14.9094C23.2494 14.0156 23.9603 13.3047 24.8541 13.3047ZM17.2775 6.54061L17.4197 7.4953C17.44 7.67811 17.6025 7.79999 17.765 7.79999H17.826C18.0291 7.77968 18.151 7.59686 18.1306 7.39374L17.9885 6.43905L22.8025 5.72811L23.1681 8.18593H6.28845L17.2775 6.54061ZM24.1744 17.2047V20.3047H19.2681L19.2478 19.9672C19.2478 19.7641 19.0853 19.6016 18.8822 19.6016C18.6791 19.6016 18.5166 19.7641 18.5166 19.9672L18.5369 20.3047H2.17439V17.2047C3.43376 17.0016 4.20314 15.7594 4.00002 14.5C3.83752 13.5047 3.1697 12.6422 2.17439 12.5V9.5L18.5369 9.3636V9.85155C18.5369 10.0547 18.6994 10.2172 18.9025 10.2172C19.1056 10.2172 19.2681 10.0547 19.2681 9.85155V9.3636H24.1744V12.6344C22.915 12.8375 22.1416 13.7406 22.3447 15C22.4666 16.0156 23.1588 17.0422 24.1744 17.2047Z" fill="#DBDBDB"/>
<path d="M18.7078 15.1531C18.5047 15.1531 18.3625 15.3156 18.3422 15.4984V17.8546C18.3422 18.0578 18.5047 18.2203 18.7078 18.2203C18.9109 18.2203 19.0734 18.0578 19.0734 17.8546V15.5187C19.0734 15.3156 18.9109 15.1531 18.7078 15.1531Z" fill="#DBDBDB"/>
<path d="M18.7078 11.0094C18.5047 11.0094 18.3625 11.1719 18.3422 11.3547V13.711C18.3422 13.9141 18.5047 14.0766 18.7078 14.0766C18.9109 14.0766 19.0734 13.9141 19.0734 13.711V11.3547C19.0734 11.1719 18.9109 11.0094 18.7078 11.0094Z" fill="#DBDBDB"/>
<path d="M5.54531 11.5781H9.95312C10.1562 11.5781 10.3187 11.4156 10.3187 11.2125C10.3187 11.0094 10.1562 10.8672 9.95312 10.8672H5.54531C5.34219 10.8672 5.17969 11.0297 5.17969 11.2328C5.17969 11.4359 5.34219 11.5781 5.54531 11.5781Z" fill="#DBDBDB"/>
<path d="M14.3609 13.1218H5.54531C5.34219 13.1218 5.17969 13.2843 5.17969 13.4875C5.17969 13.6906 5.34219 13.8531 5.54531 13.8531H14.3609C14.5641 13.8531 14.7266 13.6906 14.7266 13.4875C14.7266 13.2843 14.5641 13.1218 14.3609 13.1218Z" fill="#DBDBDB"/>
<path d="M14.3609 15.3765H5.54531C5.34219 15.3765 5.17969 15.539 5.17969 15.7422C5.17969 15.9453 5.34219 16.1078 5.54531 16.1078H14.3609C14.5641 16.1078 14.7266 15.9453 14.7266 15.7422C14.7266 15.539 14.5641 15.3765 14.3609 15.3765Z" fill="#DBDBDB"/>
<path d="M14.3609 17.6313H5.54531C5.34219 17.6313 5.17969 17.7938 5.17969 17.9969C5.17969 18.2 5.34219 18.3625 5.54531 18.3625H14.3609C14.5641 18.3625 14.7266 18.2 14.7266 17.9969C14.7266 17.7938 14.5641 17.6313 14.3609 17.6313Z" fill="#DBDBDB"/>
</svg>
