<svg width="20" height="19" viewBox="0 0 20 19" fill="none" xmlns="http://www.w3.org/2000/svg">
<path fill-rule="evenodd" clip-rule="evenodd" d="M5.01448 1C5.29063 1 5.51448 0.776142 5.51448 0.5V0.5C5.51448 0.223858 5.73834 0 6.01448 0V0C6.29063 0 6.51448 0.223858 6.51448 0.5V0.5C6.51448 0.776142 6.73834 1 7.01448 1H11.9833C12.2594 1 12.4833 0.776142 12.4833 0.5V0.5C12.4833 0.223858 12.7071 0 12.9833 0V0C13.2594 0 13.4833 0.223858 13.4833 0.5V0.5C13.4833 0.776142 13.7071 1 13.9833 1H16.9568V1C17.5091 1 17.9568 1.44772 17.9568 2V2V6.3822C17.9568 6.74957 17.5385 6.97196 17.2137 6.80034V6.80034C17.0589 6.71855 16.9568 6.55984 16.9568 6.38478V3C16.9568 2.44772 16.5091 2 15.9568 2H13.9833C13.7071 2 13.4833 2.22386 13.4833 2.5V2.5C13.4833 2.77614 13.2594 3 12.9833 3V3C12.7071 3 12.4833 2.77614 12.4833 2.5V2.5C12.4833 2.22386 12.2594 2 11.9833 2H7.01448C6.73834 2 6.51448 2.22386 6.51448 2.5V2.5C6.51448 2.77614 6.29063 3 6.01448 3V3C5.73834 3 5.51448 2.77614 5.51448 2.5V2.5C5.51448 2.22386 5.29063 2 5.01448 2H2.04333C1.49105 2 1.04333 2.44772 1.04333 3V16C1.04333 16.5523 1.49105 17 2.04334 17H8.02723C8.17199 17 8.30705 17.0719 8.39347 17.188V17.188C8.62941 17.505 8.41756 18 8.02236 18H1.04333V18C0.49105 18 0.043335 17.5523 0.043335 17V17V2V2C0.043335 1.44772 0.49105 1 1.04333 1V1H5.01448ZM13.976 18C16.717 18 18.9472 15.766 18.9472 13C18.9472 10.234 16.717 8 13.976 8C11.2351 8 9.00487 10.234 9.00487 13C9.00487 15.766 11.2351 18 13.976 18ZM13.976 19C17.2738 19 19.9472 16.3137 19.9472 13C19.9472 9.68629 17.2738 7 13.976 7C10.6782 7 8.00487 9.68629 8.00487 13C8.00487 16.3137 10.6782 19 13.976 19ZM14.376 13V10.4C14.376 10.1791 14.1969 10 13.976 10V10C13.7551 10 13.576 10.1791 13.576 10.4V12.4221C13.576 12.6865 13.4713 12.9401 13.2848 13.1275L11.9843 14.4343C11.8284 14.5909 11.8291 14.8442 11.9856 15V15C12.1422 15.1558 12.3955 15.1552 12.5513 14.9986L14.2595 13.2822V13.2822C14.3341 13.2072 14.376 13.1058 14.376 13V13Z" fill="white"/>
</svg>
