<svg width="26" height="25" viewBox="0 0 26 25" fill="none" xmlns="http://www.w3.org/2000/svg">
<path d="M20.5278 6.57487L13.9722 0.389294C13.7129 0.141516 13.3603 0.00149077 12.992 9.95744e-06C12.6237 -0.00147086 12.2699 0.135714 12.0083 0.381397L12 0.389294L5.47222 6.57487H1.88889C1.52053 6.57487 1.16726 6.71353 0.906796 6.96034C0.646329 7.20716 0.5 7.54191 0.5 7.89095V23.6839C0.5 24.033 0.646329 24.3677 0.906796 24.6145C1.16726 24.8613 1.52053 25 1.88889 25H24.1111C24.4795 25 24.8327 24.8613 25.0932 24.6145C25.3537 24.3677 25.5 24.033 25.5 23.6839V7.89095C25.5 7.54191 25.3537 7.20716 25.0932 6.96034C24.8327 6.71353 24.4795 6.57487 24.1111 6.57487H20.5278ZM13 1.5L18 6.5H8L13 1.5ZM24 23.5L2 23.342V8.34204H12.5L24 8.5V23.5ZM10.2222 13.1553C10.2222 13.5043 10.0759 13.8391 9.81543 14.0859C9.55496 14.3327 9.20169 14.4714 8.83333 14.4714C8.46498 14.4714 8.11171 14.3327 7.85124 14.0859C7.59077 13.8391 7.44444 13.5043 7.44444 13.1553C7.44444 12.8062 7.59077 12.4715 7.85124 12.2247C8.11171 11.9779 8.46498 11.8392 8.83333 11.8392C9.20169 11.8392 9.55496 11.9779 9.81543 12.2247C10.0759 12.4715 10.2222 12.8062 10.2222 13.1553ZM19.9444 19.7357H8.83333L10.9167 15.7874L12.3056 18.4196L15.7778 11.8392L19.9444 19.7357Z" fill="#DBDBDB"/>
</svg>
