<svg width="19" height="18" viewBox="0 0 19 18" fill="none" xmlns="http://www.w3.org/2000/svg">
<path fill-rule="evenodd" clip-rule="evenodd" d="M17.2163 14.6165H6.53764C6.36484 14.6165 6.19499 14.6613 6.04465 14.7465L1.30286 17.4334V17.4334C0.856348 17.6864 0.302856 17.3638 0.302856 16.8506V16.8506V1V1C0.302856 0.447715 0.750572 0 1.30286 0V0H17.2163V0C17.7686 0 18.2163 0.447715 18.2163 1V1V13.6165V13.6165C18.2163 14.1688 17.7686 14.6165 17.2163 14.6165V14.6165ZM5.78102 13.7465L2.79585 15.438C2.12921 15.8157 1.30286 15.3342 1.30286 14.568V2C1.30286 1.44772 1.75057 1 2.30286 1H16.2163C16.7686 1 17.2163 1.44772 17.2163 2V12.6165C17.2163 13.1688 16.7686 13.6165 16.2163 13.6165H6.27401V13.6165C6.10121 13.6165 5.93136 13.6613 5.78102 13.7465V13.7465ZM9.52523 3.048C9.37323 2.896 9.19323 2.82 8.98523 2.82C8.77723 2.82 8.59723 2.896 8.44523 3.048C8.29323 3.2 8.21723 3.38 8.21723 3.588C8.21723 3.796 8.29323 3.976 8.44523 4.128C8.59723 4.28 8.77723 4.356 8.98523 4.356C9.19323 4.356 9.37323 4.28 9.52523 4.128C9.67723 3.976 9.75323 3.796 9.75323 3.588C9.75323 3.38 9.67723 3.2 9.52523 3.048ZM9.81323 11.568C9.67723 11.44 9.60923 11.212 9.60923 10.884V6.95273C9.60923 6.33253 8.98143 5.856 8.36123 5.856V5.856C8.16252 5.856 7.95832 5.84777 7.74864 5.83132C7.6781 5.82579 7.61723 5.88113 7.61723 5.95189V5.95189C7.61723 6.01823 7.67108 6.07143 7.73727 6.07585C8.01006 6.09405 8.20604 6.17677 8.32523 6.324C8.46123 6.492 8.52923 6.76 8.52923 7.128V10.884C8.52923 11.212 8.46123 11.44 8.32523 11.568C8.20651 11.6728 8.01159 11.7318 7.74046 11.7451C7.67247 11.7484 7.61723 11.8032 7.61723 11.8713V11.8713C7.61723 11.9414 7.6758 11.9974 7.74591 11.9945C8.40993 11.9662 8.85103 11.952 9.06923 11.952C9.28743 11.952 9.72853 11.9662 10.3925 11.9945C10.4627 11.9974 10.5212 11.9414 10.5212 11.8713V11.8713C10.5212 11.8032 10.466 11.7484 10.398 11.7451C10.1269 11.7318 9.93195 11.6728 9.81323 11.568Z" fill="white"/>
</svg>
