<svg width="21" height="21" viewBox="0 0 21 21" fill="none" xmlns="http://www.w3.org/2000/svg">
<path d="M4.5 5.25C4.49971 5.05287 4.57735 4.86363 4.716 4.7235L4.7235 4.716C4.86363 4.57735 5.05287 4.49971 5.25 4.5H8.25C8.44891 4.5 8.63968 4.57902 8.78033 4.71967C8.92098 4.86032 9 5.05109 9 5.25C9 5.44891 8.92098 5.63968 8.78033 5.78033C8.63968 5.92098 8.44891 6 8.25 6H7.0605L8.781 7.719C8.92183 7.85983 9.00095 8.05084 9.00095 8.25C9.00095 8.44916 8.92183 8.64017 8.781 8.781C8.64017 8.92183 8.44916 9.00095 8.25 9.00095C8.05084 9.00095 7.85983 8.92183 7.719 8.781L6 7.0605V8.25C6 8.44891 5.92098 8.63968 5.78033 8.78033C5.63968 8.92098 5.44891 9 5.25 9C5.05109 9 4.86032 8.92098 4.71967 8.78033C4.57902 8.63968 4.5 8.44891 4.5 8.25V5.25ZM4.557 16.0365C4.51937 15.9457 4.5 15.8483 4.5 15.75V12.75C4.5 12.5511 4.57902 12.3603 4.71967 12.2197C4.86032 12.079 5.05109 12 5.25 12C5.44891 12 5.63968 12.079 5.78033 12.2197C5.92098 12.3603 6 12.5511 6 12.75V13.9395L7.719 12.219C7.78873 12.1493 7.87152 12.094 7.96262 12.0562C8.05373 12.0185 8.15138 11.9991 8.25 11.9991C8.34862 11.9991 8.44627 12.0185 8.53738 12.0562C8.62848 12.094 8.71127 12.1493 8.781 12.219C8.85073 12.2887 8.90605 12.3715 8.94378 12.4626C8.98152 12.5537 9.00095 12.6514 9.00095 12.75C9.00095 12.8486 8.98152 12.9463 8.94378 13.0374C8.90605 13.1285 8.85073 13.2113 8.781 13.281L7.0605 15H8.25C8.44891 15 8.63968 15.079 8.78033 15.2197C8.92098 15.3603 9 15.5511 9 15.75C9 15.9489 8.92098 16.1397 8.78033 16.2803C8.63968 16.421 8.44891 16.5 8.25 16.5H5.2455C5.09756 16.4996 4.95305 16.4553 4.83025 16.3728C4.70744 16.2903 4.61183 16.1733 4.5555 16.0365H4.557ZM16.0365 4.557C16.1235 4.593 16.206 4.647 16.2765 4.716L16.284 4.7235C16.4224 4.86381 16.5 5.05294 16.5 5.25V8.25C16.5 8.44891 16.421 8.63968 16.2803 8.78033C16.1397 8.92098 15.9489 9 15.75 9C15.5511 9 15.3603 8.92098 15.2197 8.78033C15.079 8.63968 15 8.44891 15 8.25V7.0605L13.281 8.781C13.1402 8.92183 12.9492 9.00095 12.75 9.00095C12.5508 9.00095 12.3598 8.92183 12.219 8.781C12.0782 8.64017 11.9991 8.44916 11.9991 8.25C11.9991 8.05084 12.0782 7.85983 12.219 7.719L13.9395 6H12.75C12.5511 6 12.3603 5.92098 12.2197 5.78033C12.079 5.63968 12 5.44891 12 5.25C12 5.05109 12.079 4.86032 12.2197 4.71967C12.3603 4.57902 12.5511 4.5 12.75 4.5H15.75C15.8483 4.50004 15.9457 4.51941 16.0365 4.557ZM16.2765 16.284C16.1363 16.4225 15.9471 16.5001 15.75 16.5H12.75C12.5511 16.5 12.3603 16.421 12.2197 16.2803C12.079 16.1397 12 15.9489 12 15.75C12 15.5511 12.079 15.3603 12.2197 15.2197C12.3603 15.079 12.5511 15 12.75 15H13.9395L12.219 13.281C12.1493 13.2113 12.094 13.1285 12.0562 13.0374C12.0185 12.9463 11.9991 12.8486 11.9991 12.75C11.9991 12.6514 12.0185 12.5537 12.0562 12.4626C12.094 12.3715 12.1493 12.2887 12.219 12.219C12.2887 12.1493 12.3715 12.094 12.4626 12.0562C12.5537 12.0185 12.6514 11.9991 12.75 11.9991C12.8486 11.9991 12.9463 12.0185 13.0374 12.0562C13.1285 12.094 13.2113 12.1493 13.281 12.219L15 13.9395V12.75C15 12.5511 15.079 12.3603 15.2197 12.2197C15.3603 12.079 15.5511 12 15.75 12C15.9489 12 16.1397 12.079 16.2803 12.2197C16.421 12.3603 16.5 12.5511 16.5 12.75V15.75C16.5 15.9471 16.4224 16.1362 16.284 16.2765L16.2765 16.284ZM0 3C0 2.20435 0.31607 1.44129 0.87868 0.87868C1.44129 0.31607 2.20435 0 3 0H18C18.7956 0 19.5587 0.31607 20.1213 0.87868C20.6839 1.44129 21 2.20435 21 3V18C21 18.7956 20.6839 19.5587 20.1213 20.1213C19.5587 20.6839 18.7956 21 18 21H3C2.20435 21 1.44129 20.6839 0.87868 20.1213C0.31607 19.5587 0 18.7956 0 18V3ZM3 1.5C2.60218 1.5 2.22064 1.65804 1.93934 1.93934C1.65804 2.22064 1.5 2.60218 1.5 3V18C1.5 18.3978 1.65804 18.7794 1.93934 19.0607C2.22064 19.342 2.60218 19.5 3 19.5H18C18.3978 19.5 18.7794 19.342 19.0607 19.0607C19.342 18.7794 19.5 18.3978 19.5 18V3C19.5 2.60218 19.342 2.22064 19.0607 1.93934C18.7794 1.65804 18.3978 1.5 18 1.5H3Z" fill="#DBDBDB"/>
</svg>
