<svg width="19" height="18" viewBox="0 0 19 18" fill="none" xmlns="http://www.w3.org/2000/svg">
<mask id="path-1-inside-1" fill="white">
<path fill-rule="evenodd" clip-rule="evenodd" d="M10.2759 0.157053C9.94901 -0.0502352 9.53183 -0.050235 9.20492 0.157053L1.24819 5.20225C0.958955 5.38565 0.783691 5.70431 0.783691 6.04679V16.9912C0.783691 17.5435 1.23141 17.9912 1.78369 17.9912H6.3834C6.93569 17.9912 7.3834 17.5435 7.3834 16.9912V13.312C7.3834 12.7597 7.83112 12.312 8.3834 12.312H11.0975C11.6498 12.312 12.0975 12.7597 12.0975 13.312V16.9912C12.0975 17.5435 12.5452 17.9912 13.0975 17.9912H17.6972C18.2494 17.9912 18.6972 17.5435 18.6972 16.9912V6.04679C18.6972 5.70431 18.5219 5.38565 18.2327 5.20225L10.2759 0.157053Z"/>
</mask>
<path d="M9.20492 0.157053L9.74042 1.00159L9.20492 0.157053ZM10.2759 0.157053L9.74042 1.00159L10.2759 0.157053ZM1.24819 5.20225L0.712688 4.35772L1.24819 5.20225ZM1.78369 6.04679L9.74042 1.00159L8.66942 -0.687481L0.712688 4.35772L1.78369 6.04679ZM1.78369 16.9912V6.04679H-0.216309V16.9912H1.78369ZM6.3834 16.9912H1.78369V18.9912H6.3834V16.9912ZM8.3834 16.9912V13.312H6.3834V16.9912H8.3834ZM8.3834 13.312H11.0975V11.312H8.3834V13.312ZM11.0975 13.312V16.9912H13.0975V13.312H11.0975ZM17.6972 16.9912H13.0975V18.9912H17.6972V16.9912ZM17.6972 6.04679V16.9912H19.6972V6.04679H17.6972ZM9.74042 1.00159L17.6972 6.04679L18.7682 4.35772L10.8114 -0.687481L9.74042 1.00159ZM19.6972 6.04679C19.6972 5.36183 19.3466 4.72452 18.7682 4.35772L17.6972 6.04679L17.6972 6.04679H19.6972ZM17.6972 18.9912C18.8017 18.9912 19.6972 18.0958 19.6972 16.9912H17.6972L17.6972 16.9912V18.9912ZM11.0975 16.9912C11.0975 18.0958 11.9929 18.9912 13.0975 18.9912V16.9912L13.0975 16.9912H11.0975ZM11.0975 13.312L11.0975 13.312H13.0975C13.0975 12.2074 12.202 11.312 11.0975 11.312V13.312ZM8.3834 13.312L8.3834 13.312V11.312C7.27883 11.312 6.3834 12.2074 6.3834 13.312H8.3834ZM6.3834 18.9912C7.48797 18.9912 8.3834 18.0958 8.3834 16.9912H6.3834L6.3834 16.9912V18.9912ZM-0.216309 16.9912C-0.216309 18.0958 0.67912 18.9912 1.78369 18.9912V16.9912L1.78369 16.9912H-0.216309ZM9.74042 1.00159L9.74042 1.00159L10.8114 -0.687481C10.1576 -1.10206 9.32324 -1.10206 8.66942 -0.687481L9.74042 1.00159ZM0.712688 4.35772C0.134218 4.72452 -0.216309 5.36183 -0.216309 6.04679H1.78369L1.78369 6.04679L0.712688 4.35772Z" fill="white" mask="url(#path-1-inside-1)"/>
</svg>
