<svg width="182" height="34" viewBox="0 0 182 34" fill="none" xmlns="http://www.w3.org/2000/svg">
<path fill-rule="evenodd" clip-rule="evenodd" d="M0.156921 0.157059H33.8431V33.843H0.156921V0.157059Z" fill="#FFF200"/>
<path fill-rule="evenodd" clip-rule="evenodd" d="M25.1861 6.99019L28.0057 8.92224L30.7653 7.07804L30.7734 3.28943L25.1861 6.99019ZM8.88116 27.0687L6.07117 25.1526L3.2301 27.0721L3.25836 30.7852L8.88116 27.0687ZM19.5523 10.6805L22.3062 12.533L9.22146 21.3862L17.3067 26.8433L21.1037 24.2697L18.1542 22.3162L24.9617 17.7533L30.6573 21.5323L16.8964 30.7055L3.31819 21.5961L19.5523 10.6805ZM14.3976 23.2398L11.644 21.3874L24.7287 12.5341L16.6435 7.07714L12.8464 9.65048L15.7957 11.6045L8.98845 16.167L3.29259 12.3881L17.0046 3.21484L30.6185 12.3643L14.3976 23.2398Z" fill="#1A5DAD"/>
<path fill-rule="evenodd" clip-rule="evenodd" d="M50.817 15.9985V12.254H52.1866C53.4298 12.254 54.3077 13.0453 54.3077 14.1204C54.3077 15.5403 53.1868 15.9866 52.382 15.9866H51.0985L50.817 15.9985ZM51.5785 18.2386H52.0653C53.9179 18.2386 54.5031 19.0293 54.5031 20.3277C54.5031 22.3767 52.7475 22.3969 51.9676 22.3969H50.817V18.2611L51.5785 18.2386ZM73.1774 24.6475V16.6524L76.6294 24.6475H80.3488V12.6598H77.6694V20.4104L74.3124 12.6598H70.5015V24.6475H73.1774ZM86.3371 25C89.0761 25 90.6771 23.95 90.6771 20.6814H87.5609C87.5212 21.6467 87.5048 23.171 86.3371 23.171C85.0109 23.171 84.8183 22.3973 84.8183 18.6831C84.8183 14.8414 85.1213 14.1946 86.2766 14.1946C87.1085 14.1946 87.4821 14.8043 87.4821 16.4302H90.5794C90.6956 13.8053 89.1866 12.3655 86.201 12.3655C81.7536 12.3655 81.6237 15.0973 81.6237 18.6831C81.6237 22.2878 81.5102 25 86.3371 25ZM61.578 24.6475L62.3576 21.991H65.7025L66.4627 24.6475H69.7692L66.0448 12.6598H62.2625L58.4614 24.6475H61.578ZM65.2083 20.1482H62.813L63.9539 15.2431L65.2083 20.1482ZM96.4289 23.171C95.0164 23.171 94.8337 21.816 94.8337 18.6831C94.8337 15.5499 95.0164 14.1946 96.4289 14.1946C97.8414 14.1946 98.0244 15.5499 98.0244 18.6831C98.0244 21.816 97.8414 23.171 96.4289 23.171ZM96.4289 25C101.256 25 101.256 21.8838 101.256 18.6831C101.256 15.448 101.256 12.3655 96.4289 12.3655C91.6024 12.3655 91.6024 15.448 91.6024 18.6831C91.6024 21.8838 91.6024 25 96.4289 25ZM173.311 24.6475V12.6598H170.156V24.6475H173.311ZM182 24.6475V22.8346H178.318V12.6598H175.163V24.6475H182ZM134.309 24.6475C135.795 24.6475 139.487 24.4851 139.487 20.7728C139.487 18.7646 138.837 17.3647 136.352 17.0608C138.257 16.6955 139.208 15.478 139.208 13.7948C139.208 10.6707 137.003 10.0011 134.332 10.0011H128.109V24.6475H134.309ZM131.931 16.018V12.2738H133.779C134.791 12.2738 135.506 13.0649 135.506 14.1398C135.506 15.5601 134.593 16.006 133.938 16.006H132.892L131.931 16.0192V16.018ZM132.893 18.258H133.68C135.188 18.258 135.665 19.0487 135.665 20.3475C135.665 22.3961 134.235 22.4163 133.6 22.4163H131.931V18.2805L132.893 18.258ZM107.828 14.4887H109.109C110.834 14.4887 110.834 16.4376 110.834 18.6527C110.834 21.6676 110.538 22.8165 109.027 22.8165H107.828V14.4887ZM104.685 24.6448H109.398C114.341 24.6448 114.015 20.4143 114.015 18.5657C114.015 14.8181 113.306 12.6192 109.513 12.6192H104.685V24.6448ZM120.017 23.1763C118.604 23.1763 118.421 21.8269 118.421 18.7074C118.421 15.5875 118.604 14.2381 120.017 14.2381C121.431 14.2381 121.614 15.5875 121.614 18.7074C121.614 21.8269 121.431 23.1763 120.017 23.1763ZM120.017 24.9974C124.847 24.9974 124.847 21.8943 124.847 18.7074C124.847 15.4862 124.847 12.417 120.017 12.417C115.188 12.417 115.188 15.4862 115.188 18.7074C115.188 21.8943 115.188 24.9974 120.017 24.9974ZM156.038 20.1518H153.644L154.784 15.2464L156.038 20.1518ZM164.806 24.6448C166.882 24.6448 168.985 24.3777 168.985 21.2731C168.985 17.6882 163.61 18.046 163.61 15.771C163.61 14.9411 164.134 14.4929 165.018 14.4929H167.895V12.6478H163.853C160.531 12.6478 159.71 14.0963 159.71 15.973C159.71 19.5426 165.666 19.4586 165.666 21.4664C165.666 22.2799 165.214 22.8278 164.293 22.8278H160.032L156.874 12.656H153.092L149.597 23.5664L147.403 18.8767C149.012 18.5863 149.651 17.6012 149.656 15.7938C149.656 13.7513 148.402 12.656 146.445 12.656H140.531V24.6436H143.765V14.4985H144.837C145.749 14.4985 146.542 15.1419 146.542 16.3204C146.542 17.3198 146.024 18.1396 145.192 18.0879L144.292 18.1012L147.236 24.6442H152.408L153.187 21.9875H156.532L157.293 24.6442L164.806 24.6457V24.6448ZM53.1999 24.6464C54.6853 24.6464 58.3776 24.4842 58.3776 20.7718C58.3776 18.7636 57.7276 17.3641 55.2428 17.0594C57.1472 16.6944 58.0989 15.4773 58.0989 13.7933C58.0989 10.6697 55.8928 10 53.2227 10H47V24.6464H53.1999Z" fill="white"/>
</svg>
